<mxfile host="app.diagrams.net" modified="2023-11-08T18:57:53.299Z" agent="Mozilla/5.0 (Windows NT 10.0; Win64; x64) AppleWebKit/537.36 (KHTML, like Gecko) Chrome/119.0.0.0 Safari/537.36" etag="-KcS8VQR7gG34SndvjTZ" version="22.0.8" type="device">
  <diagram name="Page-1" id="QBolJaV6OBqJcw5gbQAe">
    <mxGraphModel dx="1114" dy="602" grid="1" gridSize="10" guides="1" tooltips="1" connect="1" arrows="1" fold="1" page="1" pageScale="1" pageWidth="1169" pageHeight="827" math="0" shadow="0">
      <root>
        <mxCell id="0" />
        <mxCell id="1" parent="0" />
        <mxCell id="-uxwn5dgfjgssfpy-yIk-28" value="" style="rounded=0;whiteSpace=wrap;html=1;fillColor=none;" parent="1" vertex="1">
          <mxGeometry x="80" y="40" width="680" height="490" as="geometry" />
        </mxCell>
        <mxCell id="-uxwn5dgfjgssfpy-yIk-71" value="" style="rounded=0;whiteSpace=wrap;html=1;fillColor=none;strokeColor=#000000;" parent="1" vertex="1">
          <mxGeometry x="100" y="200" width="640" height="310" as="geometry" />
        </mxCell>
        <mxCell id="-uxwn5dgfjgssfpy-yIk-59" value="" style="endArrow=none;html=1;rounded=0;strokeColor=#808080;fillColor=#ffe6cc;dashed=1;fontColor=#808080;" parent="1" source="-uxwn5dgfjgssfpy-yIk-58" target="-uxwn5dgfjgssfpy-yIk-14" edge="1">
          <mxGeometry width="50" height="50" relative="1" as="geometry">
            <mxPoint x="600" y="420" as="sourcePoint" />
            <mxPoint x="600" y="400" as="targetPoint" />
            <Array as="points">
              <mxPoint x="500" y="400" />
            </Array>
          </mxGeometry>
        </mxCell>
        <mxCell id="-uxwn5dgfjgssfpy-yIk-29" value="Docker host" style="text;html=1;strokeColor=default;fillColor=none;align=center;verticalAlign=middle;whiteSpace=wrap;rounded=0;dashed=1;strokeWidth=1;" parent="1" vertex="1">
          <mxGeometry x="80" y="40" width="80" height="20.34" as="geometry" />
        </mxCell>
        <mxCell id="-uxwn5dgfjgssfpy-yIk-4" value="" style="endArrow=none;html=1;rounded=0;exitX=0.971;exitY=0;exitDx=0;exitDy=0;exitPerimeter=0;" parent="1" source="-uxwn5dgfjgssfpy-yIk-11" target="-uxwn5dgfjgssfpy-yIk-5" edge="1">
          <mxGeometry width="50" height="50" relative="1" as="geometry">
            <mxPoint x="590" y="590" as="sourcePoint" />
            <mxPoint x="560" y="600" as="targetPoint" />
          </mxGeometry>
        </mxCell>
        <mxCell id="-uxwn5dgfjgssfpy-yIk-6" value="" style="endArrow=none;html=1;rounded=0;strokeWidth=3;exitX=0;exitY=0;exitDx=0;exitDy=0;entryX=1;entryY=0;entryDx=0;entryDy=0;" parent="1" source="-uxwn5dgfjgssfpy-yIk-11" target="-uxwn5dgfjgssfpy-yIk-11" edge="1">
          <mxGeometry width="50" height="50" relative="1" as="geometry">
            <mxPoint x="400" y="590" as="sourcePoint" />
            <mxPoint x="600" y="590" as="targetPoint" />
          </mxGeometry>
        </mxCell>
        <mxCell id="-uxwn5dgfjgssfpy-yIk-10" value="" style="rounded=0;whiteSpace=wrap;html=1;" parent="1" vertex="1">
          <mxGeometry x="440" y="270" width="120" height="40" as="geometry" />
        </mxCell>
        <mxCell id="-uxwn5dgfjgssfpy-yIk-11" value="routing-net" style="text;html=1;align=center;verticalAlign=middle;whiteSpace=wrap;rounded=0;fontStyle=1;fillColor=none;" parent="1" vertex="1">
          <mxGeometry x="330" y="470" width="340" height="20" as="geometry" />
        </mxCell>
        <mxCell id="-uxwn5dgfjgssfpy-yIk-14" value="&lt;b&gt;:27017&lt;/b&gt;" style="rounded=1;whiteSpace=wrap;html=1;" parent="1" vertex="1">
          <mxGeometry x="470" y="310" width="60" height="20" as="geometry" />
        </mxCell>
        <mxCell id="-uxwn5dgfjgssfpy-yIk-15" value="" style="endArrow=none;html=1;rounded=0;strokeWidth=3;exitX=0;exitY=0;exitDx=0;exitDy=0;entryX=1;entryY=0;entryDx=0;entryDy=0;" parent="1" source="-uxwn5dgfjgssfpy-yIk-18" target="-uxwn5dgfjgssfpy-yIk-18" edge="1">
          <mxGeometry width="50" height="50" relative="1" as="geometry">
            <mxPoint x="430" y="400" as="sourcePoint" />
            <mxPoint x="600" y="400" as="targetPoint" />
          </mxGeometry>
        </mxCell>
        <mxCell id="-uxwn5dgfjgssfpy-yIk-16" value="" style="endArrow=none;html=1;rounded=0;exitX=0.933;exitY=0;exitDx=0;exitDy=0;exitPerimeter=0;" parent="1" source="-uxwn5dgfjgssfpy-yIk-18" target="-uxwn5dgfjgssfpy-yIk-14" edge="1">
          <mxGeometry width="50" height="50" relative="1" as="geometry">
            <mxPoint x="590" y="410" as="sourcePoint" />
            <mxPoint x="640" y="390" as="targetPoint" />
          </mxGeometry>
        </mxCell>
        <mxCell id="-uxwn5dgfjgssfpy-yIk-17" value="database" style="text;html=1;strokeColor=none;fillColor=none;align=center;verticalAlign=middle;whiteSpace=wrap;rounded=0;fontStyle=1" parent="1" vertex="1">
          <mxGeometry x="450" y="280" width="100" height="20" as="geometry" />
        </mxCell>
        <mxCell id="-uxwn5dgfjgssfpy-yIk-18" value="database-net" style="text;html=1;align=center;verticalAlign=middle;whiteSpace=wrap;rounded=0;fontStyle=1;fillColor=none;" parent="1" vertex="1">
          <mxGeometry x="360" y="360" width="150" height="20" as="geometry" />
        </mxCell>
        <mxCell id="-uxwn5dgfjgssfpy-yIk-21" value="" style="endArrow=none;html=1;rounded=0;entryX=0.067;entryY=0;entryDx=0;entryDy=0;entryPerimeter=0;exitX=0.75;exitY=1;exitDx=0;exitDy=0;" parent="1" source="-uxwn5dgfjgssfpy-yIk-20" target="-uxwn5dgfjgssfpy-yIk-18" edge="1">
          <mxGeometry width="50" height="50" relative="1" as="geometry">
            <mxPoint x="370" y="280" as="sourcePoint" />
            <mxPoint x="439.89" y="410" as="targetPoint" />
          </mxGeometry>
        </mxCell>
        <mxCell id="-uxwn5dgfjgssfpy-yIk-23" value="" style="endArrow=none;html=1;rounded=0;entryX=0.5;entryY=1;entryDx=0;entryDy=0;exitX=0.029;exitY=0;exitDx=0;exitDy=0;exitPerimeter=0;" parent="1" source="-uxwn5dgfjgssfpy-yIk-11" target="-uxwn5dgfjgssfpy-yIk-20" edge="1">
          <mxGeometry width="50" height="50" relative="1" as="geometry">
            <mxPoint x="340" y="520" as="sourcePoint" />
            <mxPoint x="390" y="400" as="targetPoint" />
          </mxGeometry>
        </mxCell>
        <mxCell id="-uxwn5dgfjgssfpy-yIk-26" value="" style="endArrow=none;html=1;rounded=0;exitX=0.909;exitY=0;exitDx=0;exitDy=0;exitPerimeter=0;" parent="1" source="-uxwn5dgfjgssfpy-yIk-38" target="-uxwn5dgfjgssfpy-yIk-25" edge="1">
          <mxGeometry width="50" height="50" relative="1" as="geometry">
            <mxPoint x="320" y="370" as="sourcePoint" />
            <mxPoint x="319.71000000000004" y="380" as="targetPoint" />
          </mxGeometry>
        </mxCell>
        <mxCell id="-uxwn5dgfjgssfpy-yIk-33" value="" style="endArrow=classic;html=1;rounded=0;" parent="1" source="-uxwn5dgfjgssfpy-yIk-10" target="8_m2zS--nm-gWROkUWk2-4" edge="1">
          <mxGeometry width="50" height="50" relative="1" as="geometry">
            <mxPoint x="660" y="310" as="sourcePoint" />
            <mxPoint x="820" y="290" as="targetPoint" />
          </mxGeometry>
        </mxCell>
        <mxCell id="-uxwn5dgfjgssfpy-yIk-35" value="" style="endArrow=classic;html=1;rounded=0;" parent="1" source="-uxwn5dgfjgssfpy-yIk-2" target="8_m2zS--nm-gWROkUWk2-5" edge="1">
          <mxGeometry width="50" height="50" relative="1" as="geometry">
            <mxPoint x="720" y="400" as="sourcePoint" />
            <mxPoint x="820" y="430" as="targetPoint" />
          </mxGeometry>
        </mxCell>
        <mxCell id="-uxwn5dgfjgssfpy-yIk-37" value="" style="endArrow=none;html=1;rounded=0;strokeWidth=3;exitX=0;exitY=0;exitDx=0;exitDy=0;entryX=1;entryY=0;entryDx=0;entryDy=0;" parent="1" source="-uxwn5dgfjgssfpy-yIk-38" target="-uxwn5dgfjgssfpy-yIk-38" edge="1">
          <mxGeometry width="50" height="50" relative="1" as="geometry">
            <mxPoint x="224.14" y="370" as="sourcePoint" />
            <mxPoint x="364.14" y="370" as="targetPoint" />
          </mxGeometry>
        </mxCell>
        <mxCell id="-uxwn5dgfjgssfpy-yIk-38" value="proxy-net" style="text;html=1;align=center;verticalAlign=middle;whiteSpace=wrap;rounded=0;fontStyle=1;fillColor=none;" parent="1" vertex="1">
          <mxGeometry x="210" y="360" width="110" height="20" as="geometry" />
        </mxCell>
        <mxCell id="-uxwn5dgfjgssfpy-yIk-42" value="" style="endArrow=none;html=1;rounded=0;exitX=0.75;exitY=1;exitDx=0;exitDy=0;entryX=0.091;entryY=0;entryDx=0;entryDy=0;entryPerimeter=0;" parent="1" target="-uxwn5dgfjgssfpy-yIk-38" edge="1">
          <mxGeometry width="50" height="50" relative="1" as="geometry">
            <mxPoint x="220" y="340" as="sourcePoint" />
            <mxPoint x="220" y="370" as="targetPoint" />
          </mxGeometry>
        </mxCell>
        <mxCell id="-uxwn5dgfjgssfpy-yIk-49" value="&lt;b&gt;:80&lt;/b&gt;" style="rounded=1;whiteSpace=wrap;html=1;" parent="1" vertex="1">
          <mxGeometry x="130" y="340" width="40" height="20" as="geometry" />
        </mxCell>
        <mxCell id="-uxwn5dgfjgssfpy-yIk-52" value="&lt;b&gt;:3000&lt;/b&gt;" style="rounded=1;whiteSpace=wrap;html=1;" parent="1" vertex="1">
          <mxGeometry x="40" y="340" width="50" height="20" as="geometry" />
        </mxCell>
        <mxCell id="-uxwn5dgfjgssfpy-yIk-53" value="" style="endArrow=none;html=1;rounded=1;" parent="1" source="-uxwn5dgfjgssfpy-yIk-49" target="-uxwn5dgfjgssfpy-yIk-52" edge="1">
          <mxGeometry width="50" height="50" relative="1" as="geometry">
            <mxPoint x="60" y="380" as="sourcePoint" />
            <mxPoint x="30" y="410" as="targetPoint" />
          </mxGeometry>
        </mxCell>
        <mxCell id="-uxwn5dgfjgssfpy-yIk-58" value="&lt;b&gt;:27017&lt;/b&gt;" style="rounded=1;whiteSpace=wrap;html=1;strokeColor=#808080;fontColor=#808080;" parent="1" vertex="1">
          <mxGeometry x="40" y="390" width="50" height="20" as="geometry" />
        </mxCell>
        <mxCell id="-uxwn5dgfjgssfpy-yIk-65" value="" style="rounded=0;whiteSpace=wrap;html=1;fillColor=none;strokeColor=#000000;" parent="1" vertex="1">
          <mxGeometry x="100" y="80" width="640" height="100" as="geometry" />
        </mxCell>
        <mxCell id="-uxwn5dgfjgssfpy-yIk-66" value="Images" style="text;html=1;strokeColor=#000000;fillColor=none;align=center;verticalAlign=middle;whiteSpace=wrap;rounded=0;dashed=1;strokeWidth=1;" parent="1" vertex="1">
          <mxGeometry x="100" y="80" width="80" height="20.34" as="geometry" />
        </mxCell>
        <mxCell id="-uxwn5dgfjgssfpy-yIk-72" value="Containers" style="text;html=1;strokeColor=#000000;fillColor=none;align=center;verticalAlign=middle;whiteSpace=wrap;rounded=0;dashed=1;strokeWidth=1;" parent="1" vertex="1">
          <mxGeometry x="100" y="200" width="70" height="20.34" as="geometry" />
        </mxCell>
        <mxCell id="-uxwn5dgfjgssfpy-yIk-74" value="" style="endArrow=classic;html=1;rounded=0;dashed=1;" parent="1" source="-uxwn5dgfjgssfpy-yIk-67" target="-uxwn5dgfjgssfpy-yIk-20" edge="1">
          <mxGeometry width="50" height="50" relative="1" as="geometry">
            <mxPoint x="330" y="360" as="sourcePoint" />
            <mxPoint x="380" y="310" as="targetPoint" />
          </mxGeometry>
        </mxCell>
        <mxCell id="-uxwn5dgfjgssfpy-yIk-79" style="edgeStyle=orthogonalEdgeStyle;rounded=0;orthogonalLoop=1;jettySize=auto;html=1;dashed=1;" parent="1" source="-uxwn5dgfjgssfpy-yIk-75" target="-uxwn5dgfjgssfpy-yIk-39" edge="1">
          <mxGeometry relative="1" as="geometry" />
        </mxCell>
        <mxCell id="-uxwn5dgfjgssfpy-yIk-84" value="" style="endArrow=classic;html=1;curved=1;dashed=1;" parent="1" source="-uxwn5dgfjgssfpy-yIk-80" target="-uxwn5dgfjgssfpy-yIk-2" edge="1">
          <mxGeometry width="50" height="50" relative="1" as="geometry">
            <mxPoint x="470" y="310" as="sourcePoint" />
            <mxPoint x="493" y="380" as="targetPoint" />
            <Array as="points" />
          </mxGeometry>
        </mxCell>
        <mxCell id="-uxwn5dgfjgssfpy-yIk-86" value="" style="group" parent="1" vertex="1" connectable="0">
          <mxGeometry x="120" y="120" width="120" height="40" as="geometry" />
        </mxCell>
        <mxCell id="-uxwn5dgfjgssfpy-yIk-75" value="" style="rounded=0;whiteSpace=wrap;html=1;glass=0;shadow=0;" parent="-uxwn5dgfjgssfpy-yIk-86" vertex="1">
          <mxGeometry width="120" height="40" as="geometry" />
        </mxCell>
        <UserObject label="nginx" linkTarget="_blank" id="-uxwn5dgfjgssfpy-yIk-78">
          <mxCell style="text;strokeColor=none;fillColor=none;align=center;verticalAlign=middle;rounded=0;whiteSpace=wrap;html=1;labelBorderColor=none;labelBackgroundColor=none;" parent="-uxwn5dgfjgssfpy-yIk-86" vertex="1">
            <mxGeometry width="120" height="40" as="geometry" />
          </mxCell>
        </UserObject>
        <mxCell id="-uxwn5dgfjgssfpy-yIk-87" value="" style="group" parent="1" vertex="1" connectable="0">
          <mxGeometry x="120" y="240" width="120" height="100" as="geometry" />
        </mxCell>
        <mxCell id="-uxwn5dgfjgssfpy-yIk-39" value="" style="rounded=0;whiteSpace=wrap;html=1;glass=0;shadow=0;" parent="-uxwn5dgfjgssfpy-yIk-87" vertex="1">
          <mxGeometry width="120" height="100" as="geometry" />
        </mxCell>
        <mxCell id="-uxwn5dgfjgssfpy-yIk-41" value="proxy" style="text;html=1;strokeColor=none;fillColor=none;align=center;verticalAlign=middle;whiteSpace=wrap;rounded=0;fontStyle=1" parent="-uxwn5dgfjgssfpy-yIk-87" vertex="1">
          <mxGeometry x="10" y="10" width="100" height="20" as="geometry" />
        </mxCell>
        <mxCell id="-uxwn5dgfjgssfpy-yIk-54" value="&lt;b&gt;/&lt;/b&gt;: static files" style="text;html=1;strokeColor=none;fillColor=none;align=center;verticalAlign=middle;whiteSpace=wrap;rounded=0;dashed=1;strokeWidth=1;" parent="-uxwn5dgfjgssfpy-yIk-87" vertex="1">
          <mxGeometry x="10" y="39.660000000000025" width="100" height="20.34" as="geometry" />
        </mxCell>
        <mxCell id="-uxwn5dgfjgssfpy-yIk-55" value="&lt;b&gt;/api&lt;/b&gt;: redirect" style="text;html=1;strokeColor=none;fillColor=none;align=center;verticalAlign=middle;whiteSpace=wrap;rounded=0;dashed=1;strokeWidth=1;" parent="-uxwn5dgfjgssfpy-yIk-87" vertex="1">
          <mxGeometry x="10" y="60" width="100" height="20.34" as="geometry" />
        </mxCell>
        <mxCell id="-uxwn5dgfjgssfpy-yIk-99" value="" style="endArrow=classic;html=1;rounded=0;dashed=1;" parent="1" source="-uxwn5dgfjgssfpy-yIk-91" target="-uxwn5dgfjgssfpy-yIk-10" edge="1">
          <mxGeometry width="50" height="50" relative="1" as="geometry">
            <mxPoint x="466" y="230" as="sourcePoint" />
            <mxPoint x="410" y="500" as="targetPoint" />
          </mxGeometry>
        </mxCell>
        <mxCell id="-uxwn5dgfjgssfpy-yIk-101" value="" style="group" parent="1" vertex="1" connectable="0">
          <mxGeometry x="280" y="270" width="120" height="60" as="geometry" />
        </mxCell>
        <mxCell id="-uxwn5dgfjgssfpy-yIk-20" value="" style="rounded=0;whiteSpace=wrap;html=1;glass=0;shadow=0;" parent="-uxwn5dgfjgssfpy-yIk-101" vertex="1">
          <mxGeometry width="120" height="40" as="geometry" />
        </mxCell>
        <mxCell id="-uxwn5dgfjgssfpy-yIk-24" value="backend" style="text;html=1;strokeColor=none;fillColor=none;align=center;verticalAlign=middle;whiteSpace=wrap;rounded=0;fontStyle=1" parent="-uxwn5dgfjgssfpy-yIk-101" vertex="1">
          <mxGeometry x="10" y="10" width="100" height="20" as="geometry" />
        </mxCell>
        <mxCell id="-uxwn5dgfjgssfpy-yIk-25" value="&lt;b&gt;:80&lt;/b&gt;" style="rounded=1;whiteSpace=wrap;html=1;" parent="-uxwn5dgfjgssfpy-yIk-101" vertex="1">
          <mxGeometry x="10" y="40" width="40" height="20" as="geometry" />
        </mxCell>
        <mxCell id="-uxwn5dgfjgssfpy-yIk-105" value="" style="group" parent="1" vertex="1" connectable="0">
          <mxGeometry x="600" y="380" width="120" height="60" as="geometry" />
        </mxCell>
        <mxCell id="-uxwn5dgfjgssfpy-yIk-2" value="" style="rounded=0;whiteSpace=wrap;html=1;" parent="-uxwn5dgfjgssfpy-yIk-105" vertex="1">
          <mxGeometry width="120" height="40" as="geometry" />
        </mxCell>
        <mxCell id="-uxwn5dgfjgssfpy-yIk-3" value="routing" style="text;html=1;strokeColor=none;fillColor=none;align=center;verticalAlign=middle;whiteSpace=wrap;rounded=0;fontStyle=1" parent="-uxwn5dgfjgssfpy-yIk-105" vertex="1">
          <mxGeometry x="5" y="10" width="110" height="20" as="geometry" />
        </mxCell>
        <mxCell id="-uxwn5dgfjgssfpy-yIk-5" value="&lt;b&gt;:5000&lt;/b&gt;" style="rounded=1;whiteSpace=wrap;html=1;" parent="-uxwn5dgfjgssfpy-yIk-105" vertex="1">
          <mxGeometry x="40" y="40" width="40" height="20" as="geometry" />
        </mxCell>
        <mxCell id="8_m2zS--nm-gWROkUWk2-4" value=".../database" style="sketch=0;pointerEvents=1;shadow=0;dashed=0;html=1;strokeColor=none;fillColor=#434445;aspect=fixed;labelPosition=center;verticalLabelPosition=bottom;verticalAlign=top;align=center;outlineConnect=0;shape=mxgraph.vvd.folder;" parent="1" vertex="1">
          <mxGeometry x="820" y="270" width="52.63" height="40" as="geometry" />
        </mxCell>
        <mxCell id="8_m2zS--nm-gWROkUWk2-5" value=".../routing" style="sketch=0;pointerEvents=1;shadow=0;dashed=0;html=1;strokeColor=none;fillColor=#434445;aspect=fixed;labelPosition=center;verticalLabelPosition=bottom;verticalAlign=top;align=center;outlineConnect=0;shape=mxgraph.vvd.folder;" parent="1" vertex="1">
          <mxGeometry x="820" y="380" width="52.63" height="40" as="geometry" />
        </mxCell>
        <mxCell id="-uxwn5dgfjgssfpy-yIk-67" value="" style="rounded=0;whiteSpace=wrap;html=1;glass=0;shadow=0;" parent="1" vertex="1">
          <mxGeometry x="280" y="120" width="120" height="40" as="geometry" />
        </mxCell>
        <UserObject label="dotnet/aspnet:6.0" linkTarget="_blank" id="-uxwn5dgfjgssfpy-yIk-69">
          <mxCell style="text;strokeColor=none;fillColor=none;align=center;verticalAlign=middle;whiteSpace=wrap;rounded=0;html=1;" parent="1" vertex="1">
            <mxGeometry x="280" y="120" width="120" height="40" as="geometry" />
          </mxCell>
        </UserObject>
        <mxCell id="-uxwn5dgfjgssfpy-yIk-91" value="" style="rounded=0;whiteSpace=wrap;html=1;glass=0;shadow=0;container=0;" parent="1" vertex="1">
          <mxGeometry x="440" y="120" width="120" height="40" as="geometry" />
        </mxCell>
        <UserObject label="mongo" linkTarget="_blank" id="-uxwn5dgfjgssfpy-yIk-92">
          <mxCell style="text;strokeColor=none;fillColor=none;align=center;verticalAlign=middle;whiteSpace=wrap;rounded=0;html=1;container=0;" parent="1" vertex="1">
            <mxGeometry x="440" y="120" width="120" height="40" as="geometry" />
          </mxCell>
        </UserObject>
        <mxCell id="-uxwn5dgfjgssfpy-yIk-104" value="" style="group" parent="1" vertex="1" connectable="0">
          <mxGeometry x="600" y="120" width="120" height="70" as="geometry" />
        </mxCell>
        <mxCell id="-uxwn5dgfjgssfpy-yIk-80" value="" style="rounded=0;whiteSpace=wrap;html=1;glass=0;shadow=0;" parent="-uxwn5dgfjgssfpy-yIk-104" vertex="1">
          <mxGeometry width="120" height="40" as="geometry" />
        </mxCell>
        <mxCell id="-uxwn5dgfjgssfpy-yIk-81" value="osrm/osrm-backend" style="text;strokeColor=none;fillColor=none;align=center;verticalAlign=middle;whiteSpace=wrap;rounded=0;html=1;" parent="-uxwn5dgfjgssfpy-yIk-104" vertex="1">
          <mxGeometry width="120" height="40" as="geometry" />
        </mxCell>
      </root>
    </mxGraphModel>
  </diagram>
</mxfile>
